#!OML:ASF F:\VICON\USERDATA\INSTALL\rory3\rory3.ASF
:FULLY-SPECIFIED
:DEGREES
178
root 1.2412421277079264 17.84808656391641 48.83050860432432 -4.231591818428934 0.8900986596764373 -1.2988850815000572
lfemur 0.8766657428508271 -2.4773189662286597 -19.980787555778026
ltibia 54.76269996702668
lfoot -15.874633241604364 -4.366337560299817
ltoes -7.31605423825316
rfemur -14.492206719467074 0.9803058799671183 24.225717973320712
rtibia 25.892969734481788
rfoot 0.39929469985703925 -9.1888716285968
rtoes 8.615471217345426
lowerback 10.545841376958304 -0.6931546579164265 -0.3962500557661296
upperback -0.03443000793904695 -0.9525428550978496 2.000905832568502
thorax -6.136442192657756 -0.4370545842290908 2.8100807975397775
lowerneck -16.758946175480208 -3.3736198935429114 -1.4577404798257612
upperneck 21.254299291346392 -4.613398054774059 1.0866625886848553
head 9.539891859151503 -2.165542443515057 0.013072419038694827
lclavicle -2.7003079518232093e-15 -2.1517147062538107e-15
lhumerus -29.37365988542359 2.77743179276865 81.89497967452711
lradius 24.826766652593673
lwrist 10.718705355363571
lhand -29.231541728192965 16.3440623697874
lfingers 7.125020000000001
lthumb -2.7554542682651824 46.24003835964689
rclavicle -2.7003079517596074e-15 -2.1517147062099662e-15
rhumerus -31.334149580591692 -21.140509085762055 -76.15799529134136
rradius 26.135638181743545
rwrist 5.955777364815313
rhand -17.958857470457264 21.529855248031456
rfingers 7.125020000000001
rthumb 8.414779769222728 -8.123013282354442
179
root 1.228536465026721 17.841348263468937 48.51532387711866 -4.186578630548276 0.8014203722367435 -1.2469721573906096
lfemur 1.0185603956111393 -2.41379248026032 -19.99116963400201
ltibia 54.34132576392555
lfoot -16.181833692681508 -4.375562397591749
ltoes -9.438201966761852
rfemur -15.126553241184487 0.993326262655571 24.129418682093487
rtibia 25.758508156150832
rfoot 0.5212520520820263 -9.3171242318221
rtoes 9.328582127896581
lowerback 10.571370207091471 -0.7253267214581252 -0.5056381830574203
upperback -0.010848062547201776 -1.03176047323572 2.002323564624799
thorax -6.098146778456288 -0.46016772545838247 2.9361191903612003
lowerneck -16.85675355915026 -3.378674296902063 -1.44134618630222
upperneck 21.233085233934553 -4.616043735635188 1.1075330021804013
head 9.565676327878366 -2.1622250723571415 0.004367534741341744
lclavicle -2.7003079518255352e-15 -2.151714706255533e-15
lhumerus -29.110123463005525 2.4666896060977965 81.915552541403
lradius 25.03673283965135
lwrist 10.34505806555391
lhand -29.315095047753953 16.5936169553313
lfingers 7.125020000000001
lthumb -2.7797347467107274 46.61066773322639
rclavicle -2.7003079517693013e-15 -2.1517147062166937e-15
rhumerus -31.18374385897319 -20.952757840272895 -76.30546443730583
rradius 26.185757005832908
rwrist 6.333389370780564
rhand -17.9070593045576 21.594427259000813
rfingers 7.125020000000001
rthumb 8.378358467327978 -8.378166811968653
180
root 1.2272895815521685 17.84120201567938 48.26992321062579 -4.041259825485763 0.7411413231612503 -1.2861614715759966
lfemur 1.133420126979754 -2.365260856907147 -19.969421061937535
ltibia 53.75918933615962
lfoot -16.057076101570907 -4.215789641849367
ltoes -8.895737460533061
rfemur -15.832498465889467 1.0240438254349915 24.099681620955163
rtibia 25.21553931993184
rfoot 0.631675571969069 -9.36232501801624
rtoes 9.109592201947084
lowerback 10.566471187355114 -0.8048695634702703 -0.5971989435302215
upperback -0.06079398475458563 -1.1172992334079312 2.0044977738156167
thorax -6.150265572890102 -0.5168648299435659 2.965714480458322
lowerneck -16.853642838458892 -3.37641188208697 -1.4287708517166569
upperneck 21.17073023437438 -4.611095849863732 1.1331150690516314
head 9.53930440017537 -2.1597355959918056 0.013834140037768922
lclavicle -2.7003079518254773e-15 -2.1517147062555995e-15
lhumerus -29.073187422544972 1.9539129668784514 81.85547686328367
lradius 25.354768215963297
lwrist 9.956546472350716
lhand -29.142345712331316 16.61711758603149
lfingers 7.125020000000001
lthumb -2.57362291683507 46.669227190983534
rclavicle -2.7003079517638116e-15 -2.1517147062131114e-15
rhumerus -30.929374256041108 -20.631798632278738 -76.40668064507288
rradius 26.27975913040801
rwrist 6.086444246403572
rhand -17.894569240888426 21.572407219420136
rfingers 7.125020000000001
rthumb 8.445243624244984 -8.424592591384226
181
root 1.2349238794600488 17.842812425841043 48.49099266617836 -3.9920738385807617 0.6650573114305656 -1.0769527190717667
lfemur 1.6915319377484792 -2.363154091831218 -20.196344967108402
ltibia 52.99697796706252
lfoot -16.326490110442094 -4.257900522133701
ltoes -9.020591039339742
rfemur -16.38919476545739 1.0409573048106824 23.98978295792468
rtibia 24.62386748674113
rfoot 0.8056951102486956 -9.371025441056721
rtoes 10.24065571770053
lowerback 10.535392740611528 -0.8727824049767625 -0.761904785046052
upperback -0.06117971077004978 -1.2968528350027968 1.9977334934775324
thorax -6.118593284395326 -0.6209979458008259 3.1069525713749417
lowerneck -16.92397261922591 -3.379177692721693 -1.411553246796494
upperneck 21.193282315892905 -4.6193409972922055 1.1694147724731105
head 9.560396932384675 -2.1585822390969005 0.02257852455984441
lclavicle -2.7003079518302183e-15 -2.1517147062589636e-15
lhumerus -28.86993693034807 1.721394583857883 81.81342722467255
lradius 25.68678714063128
lwrist 9.728527835582286
lhand -29.2687181497389 16.92887494741389
lfingers 7.125020000000001
lthumb -2.6488998460441966 47.04328242624577
rclavicle -2.700307951758827e-15 -2.151714706209758e-15
rhumerus -30.790108166330533 -20.28417086544323 -76.35849639223153
rradius 26.377046464215738
rwrist 5.687804743100788
rhand -17.883992546054653 21.56478678793763
rfingers 7.125020000000001
rthumb 8.475738317496015 -8.454745147679548
